<?xml version="1.0" standalone="no"?>
<!DOCTYPE svg PUBLIC "-//W3C//DTD SVG 20010904//EN"
 "http://www.w3.org/TR/2001/REC-SVG-20010904/DTD/svg10.dtd">
<svg version="1.0" xmlns="http://www.w3.org/2000/svg"
 width="512.000000pt" height="512.000000pt" viewBox="0 0 512.000000 512.000000"
 preserveAspectRatio="xMidYMid meet">

<g transform="translate(0.000000,512.000000) scale(0.100000,-0.100000)"
fill="#000000" stroke="none">
<path d="M750 5111 c-80 -25 -147 -80 -187 -154 -17 -30 -18 -154 -18 -2397 0
-2243 1 -2367 18 -2397 30 -55 78 -103 131 -131 l51 -27 1815 0 1815 0 51 27
c29 15 68 46 87 69 72 84 67 -65 67 1929 0 1699 -1 1798 -17 1813 -33 29 -68
31 -99 4 l-29 -25 -5 -1794 c-5 -1716 -6 -1795 -23 -1822 -38 -58 0 -56 -1057
-56 l-970 0 0 2410 0 2410 970 0 c1057 0 1019 2 1057 -56 16 -26 18 -62 23
-417 l5 -389 24 -19 c30 -25 76 -24 101 1 20 20 21 29 18 428 -3 367 -5 410
-21 439 -30 55 -78 103 -131 131 l-51 27 -1800 2 c-990 1 -1811 -2 -1825 -6z
m1480 -2551 l0 -2410 -715 0 c-789 0 -766 -2 -805 62 -20 33 -20 44 -20 2348
0 2304 0 2315 20 2348 39 63 14 61 803 62 l717 0 0 -2410z"/>
<path d="M1305 4531 c-110 -32 -175 -71 -260 -156 -131 -131 -181 -260 -172
-445 8 -165 55 -272 170 -389 155 -156 389 -215 597 -150 184 58 340 221 396
414 21 72 23 208 5 285 -51 215 -223 390 -436 445 -79 20 -224 18 -300 -4z
m337 -168 c226 -106 323 -363 223 -588 -13 -30 -26 -55 -29 -55 -3 0 -29 24
-58 54 -29 29 -61 57 -71 63 -16 8 -16 12 -2 52 45 129 -26 282 -154 327 -46
17 -122 17 -175 2 -63 -19 -140 -100 -160 -167 -20 -68 -20 -84 0 -150 l15
-52 -28 -21 c-15 -12 -47 -41 -69 -65 -23 -24 -44 -43 -46 -43 -3 0 -18 28
-34 63 -27 57 -29 71 -29 177 1 108 3 119 32 183 35 73 123 171 183 202 88 46
132 55 235 52 88 -2 108 -6 167 -34z m-106 -317 c50 -50 44 -117 -16 -163 -28
-22 -95 -16 -129 13 -76 64 -29 184 72 184 31 0 46 -7 73 -34z m-94 -324 c37
-2 82 1 99 7 28 10 38 8 75 -14 37 -22 104 -96 104 -116 0 -5 -29 -22 -64 -38
-119 -57 -256 -59 -378 -4 -83 37 -85 42 -36 98 50 56 97 88 118 78 8 -3 45
-8 82 -11z"/>
<path d="M977 2796 c-45 -17 -73 -40 -96 -81 -13 -24 -16 -60 -16 -181 0 -146
1 -152 27 -191 50 -76 36 -74 582 -71 471 3 485 4 513 24 15 11 38 40 51 64
19 39 22 59 22 170 0 69 -5 141 -10 160 -13 46 -65 95 -115 109 -63 17 -909
14 -958 -3z m931 -259 l3 -117 -448 2 -448 3 -3 95 c-2 52 0 105 3 118 l5 22
443 -2 442 -3 3 -118z"/>
<path d="M950 1989 c-65 -38 -83 -76 -88 -194 -9 -193 13 -260 98 -302 49 -25
132 -31 173 -12 24 11 47 47 47 73 0 8 -9 24 -19 37 -15 19 -32 25 -83 29
l-63 5 0 115 0 115 448 3 448 2 -3 -117 -3 -118 -240 -3 c-229 -2 -240 -3
-262 -24 -28 -26 -30 -68 -4 -99 19 -24 21 -24 248 -27 275 -4 302 -1 350 41
55 48 63 78 63 229 0 152 -14 198 -71 239 l-34 24 -485 2 c-474 3 -486 2 -520
-18z"/>
<path d="M977 1206 c-45 -17 -73 -40 -96 -81 -13 -24 -16 -60 -16 -181 0 -146
1 -152 27 -191 50 -76 36 -74 582 -71 471 3 485 4 513 24 15 11 38 40 51 64
19 39 22 59 22 170 0 69 -5 141 -10 160 -13 46 -65 95 -115 109 -63 17 -909
14 -958 -3z m931 -259 l3 -117 -448 2 -448 3 -3 95 c-2 52 0 105 3 118 l5 22
443 -2 442 -3 3 -118z"/>
<path d="M2969 4307 c-102 -43 -163 -101 -208 -197 -22 -47 -26 -69 -26 -150
0 -82 4 -103 27 -152 31 -67 94 -138 151 -172 124 -72 284 -64 395 21 68 51
73 128 10 154 -33 14 -33 14 -116 -44 -32 -23 -51 -28 -94 -28 -161 0 -263
137 -217 292 39 127 186 185 317 124 65 -30 72 -31 106 -4 19 15 26 30 26 55
0 69 -85 115 -225 121 -78 3 -98 0 -146 -20z"/>
<path d="M3580 4310 c-11 -11 -20 -33 -20 -48 0 -15 48 -167 108 -337 104
-299 109 -311 140 -327 38 -18 88 -10 109 18 18 25 213 615 213 645 0 32 -38
69 -71 69 -52 0 -64 -21 -140 -247 l-72 -217 -74 214 c-41 118 -81 222 -90
232 -22 24 -78 23 -103 -2z"/>
<path d="M2652 3117 c-31 -33 -29 -80 4 -106 26 -21 33 -21 749 -21 716 0 723
0 749 21 34 27 36 79 4 109 -21 20 -31 20 -753 20 l-732 0 -21 -23z"/>
<path d="M2652 2657 c-31 -33 -29 -80 4 -106 26 -21 33 -21 749 -21 716 0 723
0 749 21 34 27 36 79 4 109 -21 20 -31 20 -753 20 l-732 0 -21 -23z"/>
<path d="M2652 2197 c-31 -33 -29 -80 4 -106 26 -20 37 -21 401 -21 l374 0 24
25 c14 13 25 36 25 50 0 14 -11 37 -25 50 l-24 25 -379 0 -379 0 -21 -23z"/>
<path d="M2656 1739 c-36 -28 -36 -80 0 -108 26 -21 33 -21 749 -21 716 0 723
0 749 21 34 27 36 77 3 107 l-23 22 -726 0 c-719 0 -726 0 -752 -21z"/>
<path d="M2656 1279 c-36 -28 -36 -80 0 -108 26 -21 33 -21 754 -21 l727 0 21
23 c29 31 29 77 -1 105 l-23 22 -726 0 c-719 0 -726 0 -752 -21z"/>
<path d="M2657 810 c-34 -27 -37 -80 -7 -110 19 -19 33 -20 403 -20 l384 0 21
23 c27 29 28 67 3 98 l-19 24 -379 3 c-373 3 -380 2 -406 -18z"/>
</g>
</svg>
